<?xml version="1.0" encoding="utf-8"?>
<!-- Generator: Adobe Illustrator 23.0.4, SVG Export Plug-In . SVG Version: 6.00 Build 0)  -->
<svg version="1.1" xmlns="http://www.w3.org/2000/svg" xmlns:xlink="http://www.w3.org/1999/xlink" x="0px" y="0px"
	 viewBox="0 0 789.2 168.6" style="enable-background:new 0 0 789.2 168.6;" xml:space="preserve">
<style type="text/css">
	.st0{display:none;}
	.st1{display:inline;fill:#4814AD;}
	.st2{fill:#FFFFFF;}
	.st3{fill:#05B8C0;}
</style>
<g id="Backgrounds" class="st0">
	<rect id="XMLID_822_" x="-127.4" y="-97" class="st1" width="1090.6" height="375.6"/>
</g>
<g id="Sans_signe">
</g>
<g id="Avec_signe">
	<g id="XMLID_197_">
		<path id="XMLID_228_" class="st2" d="M339.8,53.1l-30.1,92.2h-20.1l-20.9-47.7l-20.5,47.7h-20.1l-30.5-92.2H223l18.2,54.9l24-54.3
			h7l24.8,54.5l18.1-55.1H339.8z"/>
		<path id="XMLID_225_" class="st2" d="M345.5,99.2c0-28,21.3-48.7,49.8-48.7c28.4,0,49.8,20.8,49.8,48.7
			c0,27.8-21.4,48.7-49.8,48.7C366.7,147.9,345.5,127,345.5,99.2z M419.9,99.2c0-14.9-10.2-25.3-24.6-25.3
			c-14.4,0-24.6,10.3-24.6,25.3s10.2,25.3,24.6,25.3C409.7,124.5,419.9,114.1,419.9,99.2z"/>
		<path id="XMLID_223_" class="st2" d="M463,19.9h24.9v125.4H463V19.9z"/>
		<path id="XMLID_203_" class="st2" d="M600.9,106.2h-69.8c2.2,12.6,10.4,19.5,22.5,19.5c8.7,0,15.8-4.1,19.6-10.7h26.2
			c-6.7,20.1-24.4,32.9-45.8,32.9c-27.2,0-47.8-21.1-47.8-48.7c0-27.8,20.5-48.7,47.8-48.7c28.3,0,47.7,21.8,47.7,48.4
			C601.4,101.3,601.2,103.8,600.9,106.2z M531.8,89.2h44.7c-3.5-11.3-11.6-17.4-22.8-17.4C542.6,71.8,534.7,78.3,531.8,89.2z"/>
		<path id="XMLID_200_" class="st2" d="M708.1,106.2h-69.8c2.2,12.6,10.4,19.5,22.5,19.5c8.7,0,15.8-4.1,19.6-10.7h26.2
			c-6.7,20.1-24.4,32.9-45.8,32.9c-27.2,0-47.8-21.1-47.8-48.7c0-27.8,20.5-48.7,47.8-48.7c28.3,0,47.7,21.8,47.7,48.4
			C708.6,101.3,708.4,103.8,708.1,106.2z M639,89.2h44.7c-3.5-11.3-11.6-17.4-22.8-17.4C649.8,71.8,641.9,78.3,639,89.2z"/>
		<path id="XMLID_198_" class="st2" d="M783.6,123.1v22.2h-17.7c-20.3,0-32.7-12.5-32.7-32.9V73.2h-16.7v-5.4l36.4-38.7h4.8v24.1
			h25.4v20h-25v35.9c0,8.9,5.1,14,14.2,14H783.6z"/>
	</g>
	<path id="XMLID_196_" class="st2" d="M88.6,129.7L45.6,86.8c-6.5,6.2-18.3,19.7-1.5,39.4c8.3,8.3,34.2,34.3,34.2,34.2
		c2.7,2.7,6.4,4.2,10.2,4.2c3.8,0,7.5-1.5,10.2-4.2l29.4-29.4C107.8,151.5,91.1,132.3,88.6,129.7z"/>
	<path id="XMLID_195_" class="st3" d="M43.8,83.1l44.7-44.6c-2.6-2.6-19.2-21.7-39.6-1.3L12.2,73.8C9.5,76.5,7.9,80.2,7.9,84
		s1.5,7.5,4.2,10.2L32.9,115C26.4,97.9,40.4,86.4,43.8,83.1z"/>
	<path id="XMLID_194_" class="st2" d="M88.5,38.4l42.9,42.9c6.5-6.2,18.3-19.7,1.5-39.4c-8.3-8.3-34.2-34.3-34.2-34.2
		C96,5,92.3,3.5,88.5,3.5C84.6,3.5,81,5,78.2,7.7L48.9,37.1C69.3,16.7,85.9,35.8,88.5,38.4z"/>
	<path id="XMLID_193_" class="st3" d="M133.2,85.1l-44.7,44.6c2.6,2.6,19.2,21.7,39.6,1.3l36.7-36.7c2.7-2.7,4.2-6.4,4.2-10.2
		s-1.5-7.5-4.2-10.2l-20.8-20.8C150.7,70.3,136.7,81.8,133.2,85.1z"/>
</g>
<g id="Forme_seule">
</g>
</svg>
