<?xml version="1.0" encoding="utf-8"?>
<!-- Generator: Adobe Illustrator 23.0.4, SVG Export Plug-In . SVG Version: 6.00 Build 0)  -->
<svg version="1.1" xmlns="http://www.w3.org/2000/svg" xmlns:xlink="http://www.w3.org/1999/xlink" x="0px" y="0px"
	 viewBox="0 0 785.2 169.6" style="enable-background:new 0 0 785.2 169.6;" xml:space="preserve">
<style type="text/css">
	.st0{display:none;}
	.st1{display:inline;fill:#4814AD;}
	.st2{fill:#FFFFFF;}
	.st3{fill:#8C80FF;}
</style>
<g id="Backgrounds" class="st0">
	<rect id="XMLID_612_" x="-130" y="-95" class="st1" width="1088.2" height="375.6"/>
</g>
<g id="Sans_signe">
</g>
<g id="Avec_signe">
	<g id="XMLID_596_">
		<path id="XMLID_610_" class="st2" d="M336.4,54l-30.1,92.2h-20.1l-20.9-47.7l-20.5,47.7h-20.1L194.3,54h25.3l18.2,54.9l24-54.3h7
			l24.8,54.5L311.7,54H336.4z"/>
		<path id="XMLID_607_" class="st2" d="M342,100.1c0-28,21.3-48.7,49.8-48.7c28.4,0,49.8,20.8,49.8,48.7c0,27.8-21.4,48.7-49.8,48.7
			C363.3,148.8,342,127.9,342,100.1z M416.4,100.1c0-14.9-10.2-25.3-24.6-25.3c-14.4,0-24.6,10.3-24.6,25.3s10.2,25.3,24.6,25.3
			C406.2,125.3,416.4,115,416.4,100.1z"/>
		<path id="XMLID_605_" class="st2" d="M459.6,20.8h24.9v125.4h-24.9V20.8z"/>
		<path id="XMLID_602_" class="st2" d="M597.5,107.1h-69.8c2.2,12.6,10.4,19.5,22.5,19.5c8.7,0,15.8-4.1,19.6-10.7H596
			c-6.7,20.1-24.4,32.9-45.8,32.9c-27.2,0-47.8-21.1-47.8-48.7c0-27.8,20.5-48.7,47.8-48.7c28.3,0,47.7,21.8,47.7,48.4
			C598,102.2,597.8,104.6,597.5,107.1z M528.4,90h44.7c-3.5-11.3-11.6-17.4-22.8-17.4C539.2,72.7,531.3,79.1,528.4,90z"/>
		<path id="XMLID_599_" class="st2" d="M704.7,107.1h-69.8c2.2,12.6,10.4,19.5,22.5,19.5c8.7,0,15.8-4.1,19.6-10.7h26.2
			c-6.7,20.1-24.4,32.9-45.8,32.9c-27.2,0-47.8-21.1-47.8-48.7c0-27.8,20.5-48.7,47.8-48.7c28.3,0,47.7,21.8,47.7,48.4
			C705.2,102.2,705,104.6,704.7,107.1z M635.6,90h44.7c-3.5-11.3-11.6-17.4-22.8-17.4C646.4,72.7,638.5,79.1,635.6,90z"/>
		<path id="XMLID_597_" class="st2" d="M780.2,124v22.2h-17.7c-20.3,0-32.7-12.5-32.7-32.9V74h-16.7v-5.4l36.4-38.7h4.8V54h25.4v20
			h-25v35.9c0,8.9,5.1,14,14.2,14H780.2z"/>
	</g>
	<path id="XMLID_595_" class="st2" d="M85.1,130.6L42.2,87.7c-6.5,6.2-18.3,19.7-1.5,39.4c8.3,8.3,34.2,34.3,34.2,34.2
		c2.7,2.7,6.4,4.2,10.2,4.2c3.8,0,7.5-1.5,10.2-4.2l29.4-29.4C104.3,152.3,87.7,133.2,85.1,130.6z"/>
	<path id="XMLID_594_" class="st3" d="M40.4,84l44.7-44.6c-2.6-2.6-19.2-21.7-39.6-1.3L8.7,74.7C6,77.4,4.5,81.1,4.5,84.9
		S6,92.4,8.7,95.1l20.8,20.8C23,98.7,37,87.2,40.4,84z"/>
	<path id="XMLID_593_" class="st2" d="M85.1,39.3L128,82.2c6.5-6.2,18.3-19.7,1.5-39.4c-8.3-8.3-34.2-34.3-34.2-34.2
		c-2.7-2.7-6.4-4.2-10.2-4.2c-3.8,0-7.5,1.5-10.2,4.2L45.4,38C65.8,17.6,82.5,36.7,85.1,39.3z"/>
	<path id="XMLID_592_" class="st3" d="M129.8,85.9l-44.7,44.6c2.6,2.6,19.2,21.7,39.6,1.3l36.7-36.7c2.7-2.7,4.2-6.4,4.2-10.2
		c0-3.8-1.5-7.5-4.2-10.2L140.7,54C147.2,71.2,133.2,82.7,129.8,85.9z"/>
</g>
<g id="Forme_seule">
</g>
</svg>
